<?xml version="1.0" encoding="UTF-8"?>
<svg id="Layer_2" data-name="Layer 2" xmlns="http://www.w3.org/2000/svg" viewBox="0 0 158.07 25">
  <defs>
    <style>
      .cls-1 {
        fill: #0771a0;
      }
    </style>
  </defs>
  <g id="Layer_1-2" data-name="Layer 1">
    <g>
      <path class="cls-1" d="M11.04,0L0,6.37c0,2.32,.22,4.34,.59,6.13,2.28,11.02,10.45,12.5,10.45,12.5,0,0,8.17-1.48,10.45-12.5,.37-1.78,.59-3.81,.59-6.13L11.04,0Zm0,22.79s0,0,0,0V12.5H2.99c-.33-1.45-.54-3.1-.61-4.98L11.04,2.53h0V12.5h8.05c-1.72,7.69-6.52,9.8-8.05,10.29Z"/>
      <g>
        <path class="cls-1" d="M37.38,14.2h-5.51l-.91,2.64h-2.91l4.97-13.85h3.23l4.97,13.85h-2.93l-.91-2.64Zm-.75-2.22l-2-5.79-2,5.79h4Z"/>
        <path class="cls-1" d="M52.5,3v2.24h-3.69v11.59h-2.77V5.24h-3.69V3h10.14Z"/>
        <path class="cls-1" d="M69.6,3v13.83h-2.77V7.84l-3.71,9h-2.1l-3.72-9v9h-2.77V3h3.15l4.4,10.28,4.4-10.28h3.13Z"/>
        <path class="cls-1" d="M79.22,16.48c-.77-.33-1.38-.81-1.83-1.43s-.68-1.35-.69-2.2h2.97c.04,.57,.24,1.02,.6,1.35,.36,.33,.86,.5,1.5,.5s1.16-.15,1.53-.47c.37-.31,.55-.72,.55-1.22,0-.41-.13-.75-.38-1.01-.25-.26-.57-.47-.94-.62-.38-.15-.9-.32-1.56-.51-.9-.26-1.63-.52-2.19-.78s-1.04-.65-1.45-1.17c-.4-.52-.6-1.22-.6-2.09,0-.82,.2-1.53,.61-2.14,.41-.61,.98-1.07,1.72-1.4,.74-.32,1.58-.49,2.54-.49,1.43,0,2.59,.35,3.48,1.04,.89,.69,1.38,1.66,1.48,2.9h-3.05c-.03-.48-.23-.87-.6-1.18-.38-.31-.88-.47-1.5-.47-.54,0-.97,.14-1.3,.42-.32,.28-.49,.68-.49,1.21,0,.37,.12,.68,.37,.92,.25,.24,.55,.44,.91,.59s.88,.33,1.54,.52c.9,.26,1.63,.53,2.2,.79,.57,.26,1.06,.66,1.47,1.19,.41,.53,.61,1.22,.61,2.08,0,.74-.19,1.43-.57,2.06-.38,.63-.95,1.14-1.68,1.52-.74,.38-1.62,.56-2.64,.56-.96,0-1.83-.17-2.61-.5Z"/>
        <path class="cls-1" d="M99.24,12.18h-8.02c.07,.79,.34,1.41,.83,1.86,.49,.45,1.09,.67,1.8,.67,1.03,0,1.76-.44,2.2-1.33h2.99c-.32,1.06-.92,1.93-1.82,2.61-.9,.68-2,1.02-3.31,1.02-1.06,0-2-.23-2.84-.7s-1.49-1.13-1.96-1.99c-.47-.86-.7-1.85-.7-2.97s.23-2.13,.69-2.99c.46-.86,1.11-1.52,1.94-1.98s1.79-.69,2.87-.69,1.98,.22,2.8,.67c.83,.45,1.47,1.09,1.92,1.91,.46,.83,.68,1.77,.68,2.84,0,.4-.03,.75-.08,1.07Zm-2.79-1.86c-.01-.71-.27-1.28-.77-1.71-.5-.43-1.12-.64-1.84-.64-.69,0-1.26,.21-1.73,.62-.47,.42-.76,.99-.86,1.73h5.21Z"/>
        <path class="cls-1" d="M101.32,8.36c.46-.85,1.1-1.51,1.92-1.98,.82-.47,1.76-.7,2.81-.7,1.36,0,2.49,.34,3.38,1.02,.89,.68,1.49,1.63,1.79,2.86h-2.99c-.16-.48-.43-.85-.8-1.12-.38-.27-.84-.41-1.4-.41-.79,0-1.42,.29-1.88,.86-.46,.57-.69,1.39-.69,2.45s.23,1.85,.69,2.43c.46,.57,1.09,.86,1.88,.86,1.12,0,1.86-.5,2.2-1.51h2.99c-.3,1.19-.9,2.13-1.8,2.83-.9,.7-2.02,1.05-3.37,1.05-1.06,0-2-.23-2.81-.7s-1.46-1.13-1.92-1.98c-.46-.85-.69-1.85-.69-2.98s.23-2.13,.69-2.98Z"/>
        <path class="cls-1" d="M123.64,5.86v10.98h-2.79v-1.39c-.36,.48-.82,.85-1.4,1.12-.57,.27-1.2,.41-1.87,.41-.86,0-1.62-.18-2.28-.54-.66-.36-1.18-.9-1.55-1.6-.38-.71-.57-1.55-.57-2.53V5.86h2.77v6.04c0,.87,.22,1.54,.65,2.01,.44,.47,1.03,.7,1.78,.7s1.37-.23,1.8-.7c.44-.47,.65-1.14,.65-2.01V5.86h2.79Z"/>
        <path class="cls-1" d="M130.54,6.2c.57-.33,1.23-.5,1.97-.5v2.91h-.73c-.87,0-1.53,.2-1.97,.61-.44,.41-.66,1.12-.66,2.14v5.47h-2.77V5.86h2.77v1.7c.36-.58,.82-1.04,1.4-1.37Z"/>
        <path class="cls-1" d="M134.56,4.08c-.32-.31-.49-.7-.49-1.16s.16-.85,.49-1.16c.32-.31,.73-.47,1.22-.47s.89,.16,1.22,.47c.32,.31,.49,.7,.49,1.16s-.16,.85-.49,1.16c-.32,.31-.73,.47-1.22,.47s-.9-.15-1.22-.47Zm2.59,1.77v10.98h-2.77V5.86h2.77Z"/>
        <path class="cls-1" d="M143.11,8.14v5.31c0,.37,.09,.64,.27,.8,.18,.17,.48,.25,.9,.25h1.29v2.34h-1.74c-2.34,0-3.51-1.14-3.51-3.41v-5.29h-1.31v-2.28h1.31V3.14h2.79v2.71h2.46v2.28h-2.46Z"/>
        <path class="cls-1" d="M158.07,5.86l-6.8,16.17h-2.95l2.38-5.47-4.4-10.7h3.11l2.83,7.67,2.87-7.67h2.95Z"/>
      </g>
      <g>
        <path class="cls-1" d="M73.7,24.82c-.24-.11-.42-.26-.56-.46-.13-.19-.21-.4-.23-.64h.33c.04,.26,.16,.49,.36,.69s.51,.3,.93,.3c.24,0,.45-.04,.63-.13s.32-.21,.42-.36c.1-.15,.15-.32,.15-.51,0-.24-.06-.43-.17-.57-.12-.14-.26-.25-.43-.31-.17-.07-.4-.15-.69-.22-.32-.08-.57-.17-.77-.25-.19-.08-.36-.21-.49-.39s-.2-.41-.2-.72c0-.23,.06-.45,.18-.64s.3-.35,.53-.46c.23-.11,.49-.17,.79-.17,.43,0,.78,.11,1.05,.32,.27,.21,.42,.48,.48,.79h-.34c-.03-.13-.09-.25-.19-.38-.1-.13-.23-.24-.41-.33s-.38-.13-.63-.13c-.33,0-.6,.09-.83,.27s-.34,.42-.34,.72c0,.24,.06,.43,.17,.57,.12,.14,.26,.25,.43,.32s.4,.15,.69,.22c.32,.09,.58,.17,.77,.26s.35,.21,.48,.38c.13,.18,.2,.41,.2,.71,0,.22-.06,.43-.18,.62-.12,.2-.29,.36-.51,.48-.23,.12-.5,.19-.82,.19s-.6-.06-.83-.17Z"/>
        <path class="cls-1" d="M77.02,22c.16-.29,.37-.52,.65-.68,.28-.16,.59-.24,.95-.24,.4,0,.74,.1,1.02,.29,.28,.2,.48,.45,.59,.75v-.99h.32v3.8h-.32v-1c-.11,.31-.31,.56-.59,.76-.28,.2-.62,.3-1.02,.3-.35,0-.67-.08-.95-.24-.28-.16-.5-.39-.65-.69s-.23-.64-.23-1.03,.08-.74,.23-1.03Zm3,.15c-.14-.25-.33-.45-.56-.59-.24-.14-.5-.21-.8-.21-.31,0-.58,.07-.81,.2-.23,.13-.42,.33-.55,.58-.13,.25-.2,.55-.2,.9s.07,.64,.2,.9c.13,.25,.31,.45,.55,.58,.24,.14,.5,.2,.81,.2s.56-.07,.8-.21c.24-.14,.43-.33,.56-.59,.13-.25,.2-.55,.2-.89s-.07-.62-.21-.88Z"/>
        <path class="cls-1" d="M84.52,21.47c.29,.28,.43,.69,.43,1.24v2.23h-.31v-2.21c0-.45-.12-.8-.34-1.04-.23-.24-.54-.36-.93-.36-.41,0-.74,.13-.98,.39-.24,.26-.37,.65-.37,1.16v2.05h-.31v-5.18h.31v2.18c.11-.28,.29-.5,.54-.65,.25-.15,.54-.23,.87-.23,.45,0,.81,.14,1.1,.42Z"/>
        <path class="cls-1" d="M86.1,22c.16-.29,.37-.52,.65-.68,.28-.16,.59-.24,.95-.24,.4,0,.74,.1,1.02,.29,.28,.2,.48,.45,.59,.75v-.99h.32v3.8h-.32v-1c-.11,.31-.31,.56-.59,.76-.28,.2-.62,.3-1.02,.3-.35,0-.67-.08-.95-.24-.28-.16-.5-.39-.65-.69s-.23-.64-.23-1.03,.08-.74,.23-1.03Zm3,.15c-.14-.25-.33-.45-.56-.59s-.5-.21-.8-.21-.58,.07-.81,.2c-.23,.13-.42,.33-.55,.58s-.2,.55-.2,.9,.06,.64,.2,.9,.31,.45,.55,.58c.24,.14,.5,.2,.81,.2s.56-.07,.8-.21c.24-.14,.43-.33,.56-.59s.2-.55,.2-.89-.07-.62-.21-.88Z"/>
        <path class="cls-1" d="M91,24.71c-.27-.19-.42-.45-.45-.8h.32c.02,.25,.14,.44,.34,.59,.2,.15,.48,.22,.83,.22,.29,0,.52-.07,.69-.22s.26-.33,.26-.54c0-.15-.04-.27-.14-.37-.09-.1-.2-.17-.34-.22-.13-.05-.32-.11-.55-.17-.28-.07-.51-.15-.68-.22s-.32-.18-.44-.33c-.12-.14-.18-.34-.18-.58,0-.18,.05-.34,.16-.49s.26-.27,.45-.36c.19-.09,.41-.13,.65-.13,.4,0,.72,.1,.96,.3,.25,.2,.38,.47,.4,.82h-.32c-.01-.25-.11-.46-.29-.62-.18-.16-.43-.24-.76-.24-.27,0-.49,.07-.67,.21s-.27,.31-.27,.51c0,.18,.05,.32,.15,.43,.1,.11,.22,.19,.37,.25,.15,.06,.34,.12,.58,.19,.27,.07,.48,.14,.64,.21,.16,.07,.3,.17,.41,.29,.11,.13,.17,.3,.17,.51,0,.2-.05,.37-.16,.53-.11,.16-.26,.28-.45,.37-.19,.09-.41,.13-.64,.13-.42,0-.77-.09-1.04-.28Z"/>
        <path class="cls-1" d="M94.28,22c.16-.29,.37-.52,.65-.68,.28-.16,.59-.24,.95-.24,.4,0,.74,.1,1.02,.29,.28,.2,.48,.45,.59,.75v-.99h.32v3.8h-.32v-1c-.11,.31-.31,.56-.59,.76-.28,.2-.62,.3-1.02,.3-.35,0-.67-.08-.95-.24-.28-.16-.5-.39-.65-.69s-.23-.64-.23-1.03,.08-.74,.23-1.03Zm3,.15c-.14-.25-.33-.45-.56-.59-.24-.14-.5-.21-.8-.21-.31,0-.58,.07-.81,.2-.23,.13-.42,.33-.55,.58-.13,.25-.2,.55-.2,.9s.07,.64,.2,.9c.13,.25,.31,.45,.55,.58,.24,.14,.5,.2,.81,.2s.56-.07,.8-.21c.24-.14,.43-.33,.56-.59,.13-.25,.2-.55,.2-.89s-.07-.62-.21-.88Z"/>
        <path class="cls-1" d="M100.93,24.93l-1.66-1.74v1.74h-.31v-5.18h.31v3.1l1.63-1.72h.44l-1.84,1.89,1.86,1.91h-.43Z"/>
        <path class="cls-1" d="M106.81,21.47c.28,.28,.43,.69,.43,1.24v2.23h-.31v-2.21c0-.45-.12-.8-.34-1.04-.23-.24-.54-.36-.93-.36-.41,0-.74,.13-.98,.39-.25,.26-.37,.65-.37,1.16v2.05h-.32v-3.8h.32v.8c.11-.28,.29-.5,.54-.65,.25-.15,.54-.23,.86-.23,.45,0,.82,.14,1.11,.42Z"/>
        <path class="cls-1" d="M108.32,20.21c-.05-.05-.08-.12-.08-.2,0-.08,.03-.14,.08-.2,.05-.05,.11-.08,.19-.08s.14,.03,.19,.08c.05,.05,.08,.12,.08,.2,0,.08-.03,.15-.08,.2-.05,.05-.11,.07-.19,.07s-.14-.02-.19-.07Zm.34,.92v3.8h-.32v-3.8h.32Z"/>
        <path class="cls-1" d="M111.11,24.59l1.4-3.46h.34l-1.57,3.8h-.33l-1.57-3.8h.34l1.4,3.46Z"/>
        <path class="cls-1" d="M113.58,22c.16-.29,.37-.52,.65-.68s.59-.24,.95-.24c.4,0,.74,.1,1.02,.29,.28,.2,.48,.45,.59,.75v-.99h.31v3.8h-.31v-1c-.11,.31-.31,.56-.59,.76-.28,.2-.62,.3-1.02,.3-.35,0-.67-.08-.95-.24s-.5-.39-.65-.69-.23-.64-.23-1.03,.08-.74,.23-1.03Zm3,.15c-.14-.25-.33-.45-.56-.59-.24-.14-.5-.21-.8-.21-.31,0-.58,.07-.81,.2-.23,.13-.42,.33-.54,.58-.13,.25-.2,.55-.2,.9s.07,.64,.2,.9c.13,.25,.31,.45,.55,.58,.24,.14,.51,.2,.81,.2s.56-.07,.8-.21c.24-.14,.43-.33,.56-.59,.13-.25,.2-.55,.2-.89s-.07-.62-.21-.88Z"/>
        <path class="cls-1" d="M121.46,21.13v3.8h-.31v-.83c-.11,.29-.29,.51-.54,.66-.25,.15-.54,.23-.86,.23-.45,0-.82-.14-1.11-.42-.29-.28-.43-.69-.43-1.24v-2.21h.31v2.19c0,.45,.11,.8,.34,1.04,.23,.24,.54,.36,.93,.36s.74-.13,.98-.39,.37-.65,.37-1.16v-2.04h.31Z"/>
        <path class="cls-1" d="M128.17,21.47c.28,.28,.41,.69,.41,1.24v2.23h-.31v-2.21c0-.45-.11-.8-.33-1.04-.22-.24-.51-.36-.89-.36s-.71,.14-.94,.41c-.24,.27-.36,.66-.36,1.18v2.02h-.31v-2.21c0-.45-.11-.8-.33-1.04-.22-.24-.51-.36-.89-.36s-.71,.14-.94,.41c-.24,.27-.36,.66-.36,1.18v2.02h-.31v-3.8h.31v.83c.11-.3,.28-.52,.52-.68,.24-.15,.52-.23,.83-.23,.34,0,.64,.09,.89,.27,.25,.18,.42,.44,.51,.79,.09-.35,.26-.61,.52-.79,.26-.18,.56-.27,.9-.27,.43,0,.79,.14,1.06,.42Z"/>
        <path class="cls-1" d="M133.53,22.95c.51-.56,.76-1.11,.76-1.62,0-.34-.09-.62-.27-.83-.18-.21-.47-.32-.88-.32s-.72,.12-.93,.37c-.21,.25-.34,.57-.36,.98h-.31c.03-.51,.19-.91,.48-1.2s.66-.43,1.13-.43c.42,0,.77,.12,1.05,.36,.27,.24,.41,.59,.41,1.06,0,.58-.27,1.17-.8,1.76s-1.14,1.12-1.83,1.57h2.79v.27h-3.3v-.21c.88-.61,1.57-1.19,2.08-1.76Z"/>
        <path class="cls-1" d="M135.91,20.56c.23-.44,.66-.65,1.29-.65s1.05,.22,1.28,.65c.23,.44,.35,1.06,.35,1.87s-.12,1.45-.35,1.89c-.23,.44-.66,.66-1.28,.66s-1.05-.22-1.29-.66c-.23-.44-.35-1.07-.35-1.89s.12-1.43,.35-1.87Zm2.51,.68c-.07-.32-.2-.58-.39-.77-.19-.19-.47-.28-.83-.28s-.64,.09-.83,.28-.32,.44-.39,.77c-.07,.32-.1,.72-.1,1.18s.03,.88,.1,1.2,.2,.58,.39,.77,.47,.29,.83,.29,.63-.1,.83-.29c.19-.19,.32-.45,.39-.77,.07-.32,.1-.72,.1-1.2s-.03-.86-.1-1.18Z"/>
        <path class="cls-1" d="M141.73,22.95c.51-.56,.76-1.11,.76-1.62,0-.34-.09-.62-.27-.83-.18-.21-.47-.32-.88-.32s-.72,.12-.93,.37c-.21,.25-.34,.57-.36,.98h-.31c.03-.51,.19-.91,.48-1.2s.66-.43,1.13-.43c.42,0,.77,.12,1.05,.36,.27,.24,.41,.59,.41,1.06,0,.58-.27,1.17-.8,1.76s-1.14,1.12-1.83,1.57h2.79v.27h-3.3v-.21c.88-.61,1.57-1.19,2.07-1.76Z"/>
        <path class="cls-1" d="M143.48,23.68v-.25l2.67-3.45h.36v3.42h.8v.27h-.8v1.26h-.31v-1.26h-2.72Zm2.72-3.32l-2.35,3.04h2.35v-3.04Z"/>
      </g>
    </g>
  </g>
</svg>